# xmcd
#
# Track frame offsets:
#	150
#	15042
#	33097
#	49092
#	65275
#	88152
#	106355
#	122535
#	133650
#	156425
#	174357
#	194820
#	222092
#	243225
#
# Disc length: 3520 seconds
#
# Revision: 1
# Processed by: cddbd v1.5.1PL0 Copyright (c) Steve Scherf et al.
# Submitted via: audiograbber 1.83.01
#
DISCID=b50dbe0e
DTITLE=Rob Berg - Ever Since
DYEAR=1999
DGENRE=Blues
TTITLE0=Seven Thunders
TTITLE1=If Only In My Dream
TTITLE2=We're Weak
TTITLE3=Love Will Never Die
TTITLE4=Finish The Job
TTITLE5=Still Love You
TTITLE6=Hold Me
TTITLE7=Mosquito
TTITLE8=Ever Since
TTITLE9=Really Big Airplane
TTITLE10=Passion of the Dream
TTITLE11=I Can See You
TTITLE12=Father Heart
TTITLE13=Passing Away
EXTD=
EXTT0=
EXTT1=
EXTT2=
EXTT3=
EXTT4=
EXTT5=
EXTT6=
EXTT7=
EXTT8=
EXTT9=
EXTT10=
EXTT11=
EXTT12=
EXTT13=
PLAYORDER=
